<?xml version="1.0" encoding="UTF-8" standalone="no"?>
<!-- Created with Inkscape (http://www.inkscape.org/) -->

<svg
   width="118.35997mm"
   height="68.339058mm"
   viewBox="0 0 118.35997 68.339058"
   version="1.1"
   id="svg561"
   inkscape:version="1.2.2 (b0a8486541, 2022-12-01)"
   sodipodi:docname="cat.svg"
   xmlns:inkscape="http://www.inkscape.org/namespaces/inkscape"
   xmlns:sodipodi="http://sodipodi.sourceforge.net/DTD/sodipodi-0.dtd"
   xmlns="http://www.w3.org/2000/svg"
   xmlns:svg="http://www.w3.org/2000/svg">
  <sodipodi:namedview
     id="namedview563"
     pagecolor="#ffffff"
     bordercolor="#000000"
     borderopacity="0.25"
     inkscape:showpageshadow="2"
     inkscape:pageopacity="0.0"
     inkscape:pagecheckerboard="0"
     inkscape:deskcolor="#d1d1d1"
     inkscape:document-units="mm"
     showgrid="false"
     inkscape:zoom="0.77326038"
     inkscape:cx="225.02123"
     inkscape:cy="42.029827"
     inkscape:window-width="1920"
     inkscape:window-height="1011"
     inkscape:window-x="900"
     inkscape:window-y="180"
     inkscape:window-maximized="1"
     inkscape:current-layer="layer1" />
  <defs
     id="defs558" />
  <g
     inkscape:label="Layer 1"
     inkscape:groupmode="layer"
     id="layer1"
     transform="translate(-45.48976,-110.13535)">
    <path
       d="m 163.28059,150.56193 c -1.17264,-3.32705 -4.89832,-5.43843 -7.93362,-6.6474 -1.05516,-1.55046 -2.177,-2.92311 -3.34011,-4.08728 -0.073,-0.28187 -0.17462,-0.55563 -0.30303,-0.81809 -0.50835,-1.04387 -1.41534,-1.85067 -2.49731,-2.25037 -0.1651,-0.61383 -0.46285,-1.18145 -0.87701,-1.66652 -0.83961,-0.98461 -2.07751,-1.54976 -3.39654,-1.54976 -0.84914,0 -1.65912,0.23354 -2.35691,0.66993 -0.21026,-0.17992 -0.43744,-0.33973 -0.67804,-0.47484 -0.001,-0.266 -0.005,-0.51047 -0.012,-0.72637 -0.1464,-5.21935 -1.31762,-8.70444 -3.48121,-10.35861 -1.28411,-0.98249 -2.73473,-1.50213 -4.19523,-1.50213 -3.65937,0 -6.43432,3.04764 -6.81779,7.44361 -0.48119,0.6477 -2.15159,2.26272 -4.70711,3.99097 -1.02659,-0.33372 -2.96263,-1.25906 -5.09306,-2.57422 -0.46531,-1.84961 -1.25377,-3.53342 -2.34879,-5.01967 1.99954,-2.88502 2.52589,-6.37681 1.47708,-9.91764 -0.86783,-2.92841 -3.34821,-4.74663 -6.47206,-4.74663 -3.95499,0 -7.94068,2.89172 -8.6995,3.47204 -1.701801,1.30069 -4.948768,3.042 -13.474349,3.14643 -5.066948,0.0628 -8.489598,1.92863 -10.746318,4.03789 -0.100894,-0.82409 -0.338666,-1.60831 -0.711905,-2.33327 -0.922867,-1.79458 -3.002139,-3.93277 -7.66692,-3.93277 -1.610078,0 -3.431117,0.24448 -5.56754,0.74824 -5.90797,1.39383 -10.914239,5.12234 -14.097353,10.49796 -3.644548,6.15562 -4.576234,13.87617 -2.55517,21.18043 2.191808,7.92586 8.964437,12.46999 18.581512,12.46999 h 0.05115 c 5.162551,15.31055 20.767324,17.15699 28.325941,18.05128 1.010356,0.11924 1.883128,0.22261 2.592917,0.33655 1.160639,0.18662 2.323042,0.28117 3.455106,0.28117 3.970869,0 6.940199,-1.137 8.808509,-2.16218 1.25024,0.17357 2.82187,0.25824 4.78755,0.25824 5.65644,0 13.208,-0.72708 15.62523,-0.97684 1.44639,0.28575 2.95698,0.43109 4.49263,0.43109 6.98112,-7.1e-4 13.15049,-2.96051 15.70002,-4.37515 h 0.0649 c 3.12949,0 7.43408,-0.57256 10.16423,-3.30341 1.43369,-1.43298 2.04999,-3.29318 1.73461,-5.24122 -0.19932,-1.22978 -0.78493,-2.42817 -1.74519,-3.5754 1.27,-0.70415 2.34914,-1.7078 3.16688,-2.95522 1.17193,-1.79 1.43687,-3.85692 0.74578,-5.82083"
       style="fill:#ffffff;fill-opacity:1;fill-rule:nonzero;stroke:none;stroke-width:0.0352778"
       id="path102" />
    <path
       d="m 68.948864,114.90879 c -1.594909,0 -3.401484,0.24306 -5.523442,0.7433 -5.856818,1.38148 -10.820401,5.07824 -13.976351,10.40836 -3.618442,6.11223 -4.54272,13.77844 -2.535767,21.03226 2.167114,7.83555 8.872361,12.32958 18.397009,12.32958 h 0.189089 l 0.04375,0.13018 c 5.123745,15.19484 20.686537,17.0374 28.165779,17.92216 0.960967,0.1136 1.867606,0.22049 2.601737,0.33761 1.151819,0.18521 2.303639,0.27905 3.424767,0.27905 3.981805,0 6.937725,-1.16311 8.716435,-2.13889 l 0.0554,-0.0303 0.0628,0.009 c 1.24248,0.17216 2.79964,0.25612 4.76144,0.25612 5.71712,0 13.39039,-0.74683 15.60548,-0.97578 l 0.0286,-0.003 0.0282,0.005 c 1.4351,0.28399 2.9337,0.42792 4.45558,0.42792 7.01146,-0.001 13.24998,-3.04341 15.60724,-4.35187 l 0.043,-0.024 h 0.11466 c 3.09386,0 7.34518,-0.56303 10.02876,-3.24591 1.38889,-1.38924 1.98579,-3.19158 1.68099,-5.07541 -0.19368,-1.19204 -0.76659,-2.36397 -1.70321,-3.48298 l -0.14923,-0.1778 0.20356,-0.11289 c 1.25483,-0.69603 2.29728,-1.6697 3.0995,-2.89313 1.13842,-1.73919 1.3963,-3.7465 0.72496,-5.6522 -1.15782,-3.28437 -4.89373,-5.3654 -7.82426,-6.53239 l -0.054,-0.0222 -0.0332,-0.049 c -1.04599,-1.53705 -2.16183,-2.90266 -3.31717,-4.05942 l -0.0367,-0.0367 -0.0134,-0.0504 c -0.0691,-0.26846 -0.16651,-0.53093 -0.28928,-0.78105 -0.48013,-0.98601 -1.35149,-1.77165 -2.39112,-2.15547 l -0.0931,-0.0342 -0.0257,-0.096 c -0.15981,-0.59266 -0.44168,-1.12783 -0.83785,-1.59173 -0.80328,-0.94227 -1.98826,-1.48273 -3.25085,-1.48273 -0.80504,0 -1.58503,0.2212 -2.25531,0.641 l -0.11924,0.0744 -0.10689,-0.0917 c -0.2032,-0.17357 -0.42051,-0.32597 -0.6477,-0.45261 l -0.097,-0.0554 -3.5e-4,-0.11148 c -0.001,-0.26388 -0.006,-0.5073 -0.012,-0.72143 -0.14464,-5.15867 -1.29081,-8.59402 -3.40607,-10.21186 -1.25095,-0.95709 -2.661,-1.46297 -4.07846,-1.46297 -3.52849,0 -6.2537,2.98909 -6.62729,7.26934 l -0.005,0.0536 -0.0321,0.0434 c -0.49318,0.66357 -2.1657,2.28494 -4.75403,4.03507 l -0.0773,0.0522 -0.0892,-0.0282 c -0.90981,-0.29563 -2.80035,-1.15288 -5.13433,-2.59362 l -0.0663,-0.0413 -0.0187,-0.0751 c -0.45896,-1.82245 -1.2386,-3.48827 -2.31775,-4.95265 l -0.0811,-0.11007 0.078,-0.11288 c 1.96074,-2.82928 2.47615,-6.29286 1.45098,-9.75396 -0.84314,-2.84303 -3.25262,-4.60869 -6.28827,-4.60869 -3.89467,0 -7.83308,2.85856 -8.58308,3.43183 -1.723321,1.31762 -5.006977,3.0808 -13.588297,3.18664 -4.272139,0.0526 -7.84472,1.39347 -10.617906,3.98603 l -0.27552,0.25718 -0.04586,-0.3743 c -0.09807,-0.80469 -0.330553,-1.56739 -0.691797,-2.26871 -0.898525,-1.74696 -2.928409,-3.82905 -7.496528,-3.82905 z m 30.786566,63.56562 c -1.141237,0 -2.314223,-0.0952 -3.485445,-0.28328 -0.72637,-0.11642 -1.628775,-0.22261 -2.584803,-0.3355 -7.537451,-0.89252 -23.195846,-2.74461 -28.440946,-18.04952 -9.665054,-0.0272 -16.470491,-4.61997 -18.679938,-12.6111 -2.035175,-7.354 -1.096786,-15.12817 2.574573,-21.32929 3.209925,-5.42149 8.259586,-9.18069 14.218356,-10.58616 2.151239,-0.508 3.986742,-0.75389 5.611637,-0.75389 4.761442,0 6.890103,2.19534 7.837311,4.03613 0.327378,0.63606 0.55492,1.31975 0.678392,2.03694 2.805642,-2.49907 6.372225,-3.79236 10.607323,-3.84492 8.467373,-0.10372 11.68012,-1.82316 13.36005,-3.10727 0.76694,-0.58632 4.79742,-3.5112 8.81591,-3.5112 3.2124,0 5.76298,1.87114 6.65586,4.88351 1.04528,3.52919 0.53799,7.06331 -1.42628,9.96879 1.05234,1.45662 1.81928,3.1048 2.28106,4.90044 2.20098,1.35396 3.98533,2.17381 4.89691,2.48461 2.4317,-1.65382 4.05518,-3.21098 4.55048,-3.85021 0.40993,-4.45665 3.28401,-7.56427 7.00405,-7.56427 1.50248,0 2.99332,0.5334 4.3113,1.54235 2.21192,1.69121 3.40854,5.22605 3.55671,10.50537 0.006,0.18662 0.009,0.39546 0.0109,0.62089 0.17462,0.10407 0.34325,0.22119 0.50447,0.35136 0.70379,-0.41063 1.50989,-0.62724 2.33962,-0.62724 1.37548,0 2.6663,0.58914 3.54224,1.61643 0.41205,0.48331 0.7112,1.03646 0.89006,1.64606 1.09079,0.43004 2.00272,1.26789 2.51071,2.31246 0.1263,0.25647 0.22755,0.52635 0.30304,0.80222 1.14653,1.15323 2.25425,2.5086 3.29318,4.02978 2.99544,1.20121 6.79097,3.34045 7.98936,6.74017 0.7112,2.02142 0.43921,4.14867 -0.76659,5.98946 -0.79339,1.21144 -1.81398,2.18758 -3.03494,2.90513 0.89605,1.11972 1.4485,2.29235 1.64218,3.49038 0.32526,2.00872 -0.30939,3.92959 -1.78823,5.40738 -2.77601,2.77601 -7.13317,3.35915 -10.2997,3.35915 h -0.0155 c -2.41547,1.33526 -8.69103,4.37444 -15.74941,4.37585 -1.5367,0 -3.05082,-0.14464 -4.50144,-0.43003 -2.25743,0.23318 -9.906,0.97508 -15.61642,0.97508 -1.94663,0 -3.50167,-0.0819 -4.75121,-0.25154 -1.82351,0.99096 -4.82283,2.15548 -8.844844,2.15548"
       style="fill:#4f2614;fill-opacity:1;fill-rule:nonzero;stroke:none;stroke-width:0.0352778"
       id="path104" />
    <path
       d="m 152.43725,147.56296 c -8.36118,-13.5255 -16.72272,-6.51686 -16.72272,-6.51686 1.92017,-1.64536 2.13995,-8.18092 1.26753,-12.08476 l -0.007,-0.036 c -0.0247,-0.10795 -0.0505,-0.21202 -0.0765,-0.31679 -0.012,-0.0469 -0.0236,-0.0952 -0.0356,-0.14182 -0.0233,-0.0875 -0.0476,-0.1718 -0.0716,-0.25576 -0.0176,-0.0593 -0.0342,-0.11783 -0.0522,-0.17569 -0.0222,-0.0744 -0.0459,-0.14464 -0.0699,-0.21625 -0.0205,-0.0614 -0.042,-0.12277 -0.0635,-0.18133 -0.0229,-0.0635 -0.0466,-0.12594 -0.0702,-0.18662 -0.0243,-0.0614 -0.049,-0.11994 -0.0741,-0.1785 -0.0233,-0.054 -0.0462,-0.1069 -0.0706,-0.1577 -0.0275,-0.0586 -0.0557,-0.11394 -0.0843,-0.16898 -0.0229,-0.0455 -0.0462,-0.0896 -0.0702,-0.13158 -0.0318,-0.0557 -0.0646,-0.10689 -0.097,-0.15628 -0.0219,-0.0346 -0.0444,-0.0716 -0.0674,-0.10407 -0.0378,-0.0526 -0.0765,-0.0988 -0.11536,-0.14499 l -0.0582,-0.0723 c -0.0596,-0.0632 -0.12065,-0.12101 -0.18344,-0.16863 -2.09021,-1.59844 -3.81176,0.24518 -3.93453,3.14607 -0.004,0.0977 -0.0183,0.19756 -0.0388,0.29845 -0.006,0.0317 -0.0169,0.0646 -0.0243,0.097 -0.0183,0.0709 -0.0367,0.14182 -0.0617,0.21484 -0.013,0.0381 -0.0286,0.0765 -0.0434,0.11395 -0.0268,0.0688 -0.055,0.13758 -0.0871,0.20849 -0.0183,0.0402 -0.0388,0.0794 -0.0593,0.11995 -0.0353,0.0713 -0.0734,0.14217 -0.11465,0.21378 -0.0219,0.0399 -0.0452,0.0776 -0.0684,0.11712 -0.0462,0.0765 -0.0952,0.15275 -0.14711,0.23001 -0.0236,0.0353 -0.0469,0.0709 -0.072,0.10619 -0.06,0.0868 -0.12418,0.17357 -0.19015,0.26105 l -0.0596,0.0794 c -0.18344,0.23425 -0.38523,0.47132 -0.60325,0.70838 -2.26483,2.45604 -6.17643,4.90573 -6.17643,4.90573 -2.58234,1.10666 -10.4514,-4.30354 -10.4514,-4.30354 -0.61489,-5.65643 -4.79566,-7.62423 -4.79566,-7.62423 0.75318,-0.46708 1.3903,-0.98037 1.92793,-1.52823 l 0.002,-0.002 c 0.49107,-0.5013 0.89464,-1.03258 1.21109,-1.58786 l 0.0303,-0.0547 c 0.072,-0.12947 0.14075,-0.25964 0.2039,-0.39123 l 0.0208,-0.0469 c 0.18168,-0.38805 0.32279,-0.78563 0.42475,-1.19133 0.0131,-0.0511 0.0272,-0.10195 0.0392,-0.15416 0.0236,-0.10548 0.0445,-0.21237 0.0628,-0.31856 0.013,-0.0723 0.024,-0.14393 0.0349,-0.21625 0.0138,-0.0977 0.0272,-0.1972 0.0367,-0.29492 0.01,-0.0945 0.0145,-0.18803 0.0198,-0.28258 0.005,-0.091 0.012,-0.18239 0.0134,-0.27481 0.003,-0.15911 0,-0.31962 -0.008,-0.48084 -0.003,-0.0691 -0.0106,-0.14005 -0.0159,-0.20955 -0.01,-0.11783 -0.0205,-0.23777 -0.0353,-0.35701 -0.008,-0.0702 -0.019,-0.14182 -0.0296,-0.21273 -0.0194,-0.12558 -0.0423,-0.25294 -0.0677,-0.37994 -0.0127,-0.0596 -0.024,-0.121 -0.0378,-0.18238 -0.042,-0.18662 -0.0896,-0.37571 -0.14499,-0.56374 -0.0307,-0.10054 -0.0642,-0.19685 -0.10196,-0.28716 l -0.0416,-0.0868 c -0.0268,-0.0575 -0.0529,-0.11501 -0.0826,-0.16757 -0.0183,-0.0332 -0.0392,-0.0614 -0.0586,-0.0924 -0.0282,-0.0455 -0.0557,-0.09 -0.0864,-0.13159 l -0.0706,-0.0847 c -0.031,-0.037 -0.0614,-0.0751 -0.0942,-0.10971 l -0.0811,-0.0734 c -0.0335,-0.0318 -0.0667,-0.0628 -0.1023,-0.0903 l -0.0892,-0.0635 c -0.0363,-0.0261 -0.0734,-0.0511 -0.11183,-0.0737 -0.031,-0.0201 -0.0642,-0.036 -0.0963,-0.0522 -0.0399,-0.0208 -0.0794,-0.0416 -0.1203,-0.0586 -0.0339,-0.0152 -0.0684,-0.0275 -0.10337,-0.0416 -0.0423,-0.0152 -0.085,-0.0303 -0.12876,-0.0441 -0.0356,-0.0116 -0.0723,-0.0205 -0.10865,-0.031 -0.0452,-0.0102 -0.0903,-0.0219 -0.13653,-0.0303 -0.0374,-0.008 -0.0762,-0.0141 -0.11395,-0.0205 -0.0473,-0.006 -0.0952,-0.013 -0.14322,-0.018 -0.0399,-0.005 -0.0794,-0.007 -0.11995,-0.0102 -0.049,-0.004 -0.0981,-0.006 -0.14781,-0.007 -0.0416,-7.1e-4 -0.0833,-7.1e-4 -0.12559,-7.1e-4 -0.0504,0 -0.1016,10e-4 -0.1524,0.004 -0.0427,0.003 -0.0857,0.004 -0.12982,0.008 -0.0522,0.003 -0.10478,0.008 -0.15664,0.0145 -0.0441,0.004 -0.0882,0.009 -0.1337,0.0155 -0.0526,0.007 -0.10583,0.0159 -0.15981,0.0243 -0.0459,0.007 -0.091,0.0152 -0.13723,0.024 -0.0529,0.01 -0.10724,0.0215 -0.16122,0.0332 -0.0466,0.0102 -0.0938,0.0194 -0.14146,0.031 -0.0529,0.0131 -0.10689,0.0268 -0.15981,0.0406 -0.049,0.0123 -0.0981,0.0247 -0.14711,0.0392 -0.0526,0.0145 -0.10442,0.031 -0.15699,0.0462 -0.0508,0.0152 -0.1023,0.0303 -0.1531,0.0469 -0.0494,0.0159 -0.0981,0.0332 -0.14711,0.0497 -0.055,0.0183 -0.11042,0.037 -0.16651,0.0564 -0.0416,0.0152 -0.0833,0.0317 -0.12559,0.0469 -0.0628,0.0233 -0.12488,0.0459 -0.18732,0.0702 l -0.0843,0.0342 c -1.33915,0.53764 -2.6469,1.34091 -3.4731,1.97344 -2.09056,1.59879 -6.148565,3.93453 -16.108188,4.05765 -1.105606,0.0138 -2.09797,0.14323 -2.998611,0.35349 -0.08573,0.0201 -0.17392,0.0374 -0.257528,0.0586 -0.143581,0.0374 -0.280811,0.0787 -0.4191,0.11994 -0.08996,0.0261 -0.181328,0.0519 -0.268464,0.0801 -0.132645,0.0427 -0.26035,0.0892 -0.388056,0.13617 -0.08643,0.0318 -0.174272,0.0628 -0.258586,0.096 -0.123825,0.0494 -0.244475,0.10125 -0.364067,0.15275 -0.08149,0.036 -0.16263,0.0727 -0.242711,0.10972 -0.116064,0.0543 -0.230011,0.11007 -0.342194,0.16827 -0.0762,0.0392 -0.150989,0.0797 -0.225778,0.1196 -0.109714,0.06 -0.217664,0.12135 -0.32385,0.18415 -0.06985,0.042 -0.137583,0.084 -0.204611,0.12594 -0.104775,0.0663 -0.208492,0.13229 -0.308328,0.20002 -0.06209,0.0441 -0.121708,0.0868 -0.182386,0.13018 -0.100189,0.0716 -0.200731,0.14322 -0.297039,0.21766 -0.05009,0.0384 -0.09807,0.0787 -0.147461,0.11924 -0.100894,0.0804 -0.202142,0.16122 -0.297744,0.24518 l -0.05821,0.0526 c -0.355953,0.31397 -0.67698,0.64276 -0.968022,0.97896 -0.02858,0.0339 -0.05927,0.066 -0.08784,0.0998 -0.07479,0.0903 -0.146755,0.18062 -0.218369,0.27093 -0.03493,0.0455 -0.07091,0.0896 -0.105128,0.1337 -0.06597,0.0875 -0.129117,0.17357 -0.191558,0.26106 -0.03563,0.049 -0.07056,0.097 -0.104775,0.14605 -0.05891,0.0854 -0.116064,0.17004 -0.170745,0.25576 -0.03387,0.0508 -0.06632,0.10055 -0.09842,0.15135 -0.05327,0.085 -0.104775,0.16827 -0.154516,0.25223 -0.03034,0.0505 -0.05997,0.10054 -0.0889,0.1517 -0.04798,0.0833 -0.09454,0.16545 -0.1397,0.24729 -0.02646,0.0504 -0.05292,0.0991 -0.07867,0.14958 -0.04304,0.0811 -0.08678,0.16404 -0.127,0.24448 -0.02293,0.0476 -0.0448,0.0931 -0.06738,0.14076 -0.03986,0.0811 -0.07902,0.16298 -0.115358,0.24376 -0.0194,0.0413 -0.03634,0.0808 -0.05398,0.12207 -0.03704,0.0833 -0.07479,0.16792 -0.108655,0.24941 l -0.0194,0.0487 c -0.08714,0.21096 -0.164395,0.41346 -0.232128,0.60572 l -0.0056,0.0152 c -0.02611,0.0744 -0.04904,0.14393 -0.07232,0.21519 -0.01129,0.0342 -0.02399,0.0716 -0.03457,0.10584 -0.02081,0.0635 -0.03916,0.12276 -0.0575,0.18344 -0.01129,0.0384 -0.02328,0.0765 -0.03422,0.1136 -0.01658,0.0557 -0.03069,0.10759 -0.04516,0.1591 -0.01058,0.0388 -0.02081,0.0759 -0.03069,0.11183 -0.01235,0.048 -0.02399,0.0928 -0.03563,0.13688 -0.0088,0.036 -0.01729,0.0706 -0.0254,0.10407 -0.01023,0.0402 -0.01905,0.0787 -0.02752,0.11641 -0.0074,0.0325 -0.01376,0.0621 -0.02081,0.091 -0.0078,0.0339 -0.01376,0.0656 -0.02011,0.0952 l -0.01623,0.0783 -0.01376,0.072 -0.01199,0.0639 -0.0081,0.0462 -0.0078,0.049 -0.0032,0.019 -0.0032,0.0229 c -0.219075,0.0811 -0.4318,0.17286 -0.639586,0.27094 -0.06385,0.0307 -0.123472,0.0653 -0.186619,0.097 -0.143228,0.0716 -0.286456,0.14605 -0.423686,0.22613 -0.06809,0.0392 -0.132998,0.0819 -0.200025,0.12382 -0.129117,0.0804 -0.257881,0.16122 -0.382059,0.2473 -0.06385,0.0448 -0.125589,0.0917 -0.18803,0.13652 -0.124531,0.0917 -0.248003,0.18451 -0.367948,0.28187 -0.05644,0.0462 -0.110419,0.0921 -0.165805,0.139 -0.123825,0.10477 -0.245886,0.21237 -0.365125,0.32385 -0.04586,0.0434 -0.09172,0.0861 -0.137231,0.13017 -0.126294,0.12348 -0.249414,0.24801 -0.370769,0.37712 -0.03387,0.0363 -0.06879,0.073 -0.102658,0.11007 -0.131939,0.14358 -0.259998,0.29139 -0.384881,0.44097 l -0.0628,0.0751 c -0.141816,0.17286 -0.279047,0.34925 -0.41275,0.53058 l -0.0067,0.008 c -2.997851,4.06549 -3.842048,9.76073 -3.842048,9.76073 -15.000818,3.93524 -8.606721,-11.31217 -6.885517,-12.78749 l 0.0388,-0.0307 c 0.05398,-0.0452 0.111831,-0.091 0.174978,-0.13864 l 3.53e-4,-7.1e-4 c 1.368778,-1.02658 4.847872,-2.63701 7.328253,-4.08446 l 0.0035,-0.002 c 0.112889,-0.0649 0.222955,-0.13088 0.331611,-0.19579 l 0.01975,-0.0116 c 0.09313,-0.0564 0.183092,-0.11148 0.272345,-0.16686 l 0.06421,-0.0399 c 0.08184,-0.0501 0.160514,-0.10125 0.238831,-0.15134 l 0.07726,-0.0497 c 0.07796,-0.0505 0.1524,-0.10125 0.226131,-0.15099 l 0.0695,-0.0462 c 0.06985,-0.0483 0.13582,-0.0949 0.202142,-0.14253 l 0.07126,-0.0512 c 0.0635,-0.0455 0.122061,-0.0907 0.181328,-0.13687 l 0.06809,-0.0519 c 0.05115,-0.0392 0.09666,-0.079 0.143228,-0.11713 l 0.08079,-0.066 c 0.04551,-0.0395 0.08573,-0.078 0.127353,-0.11641 l 0.06668,-0.0607 c 0.04092,-0.0402 0.07691,-0.0787 0.112536,-0.11783 l 0.05221,-0.0543 c 0.04904,-0.0554 0.09313,-0.11042 0.131586,-0.16404 1.22943,-1.72191 3.442758,-7.74665 -7.500762,-5.16432 -0.357011,0.0847 -0.708025,0.17992 -1.053041,0.2847 -0.09137,0.0268 -0.178859,0.0593 -0.268817,0.0882 -0.255411,0.0811 -0.509411,0.16404 -0.758825,0.25611 -0.09137,0.0339 -0.179917,0.0723 -0.270581,0.1076 -0.245886,0.0949 -0.490361,0.19297 -0.729544,0.29916 -0.07832,0.0342 -0.15487,0.0723 -0.231776,0.10724 -0.250119,0.11571 -0.497769,0.23354 -0.740127,0.35913 -0.06103,0.0324 -0.121003,0.0653 -0.181681,0.0984 -0.257175,0.13723 -0.511175,0.27904 -0.759883,0.42792 -0.04304,0.0261 -0.08608,0.0529 -0.129117,0.0801 -0.264583,0.16122 -0.524581,0.33055 -0.778933,0.50482 l -0.07796,0.0547 c -0.270581,0.18803 -0.535164,0.38347 -0.793398,0.58561 l -0.03351,0.0268 c -0.271639,0.21273 -0.536928,0.43392 -0.795161,0.66428 h -0.0011 c -5.736167,5.08283 -8.13682,13.79397 -5.799314,22.24547 3.196872,11.55841 17.706271,8.97643 17.706271,8.97643 3.143603,16.16603 18.377254,17.47025 26.24561,18.41711 0.2794,0.0335 0.546805,0.066 0.807155,0.0998 0.138995,0.0187 0.276578,0.0356 0.409223,0.0536 0.0762,0.0109 0.150988,0.0208 0.224719,0.031 0.204964,0.0289 0.405694,0.0586 0.594431,0.0882 6.885519,1.10666 10.697279,-2.22356 10.697279,-2.22356 0.11466,0.042 0.24271,0.0815 0.37994,0.11782 0.043,0.0117 0.091,0.0222 0.13582,0.0339 0.0995,0.024 0.20073,0.0469 0.30904,0.0688 0.0579,0.012 0.11818,0.0222 0.1785,0.0339 0.10584,0.0194 0.2159,0.0367 0.3302,0.0536 0.0663,0.01 0.133,0.0201 0.20215,0.0289 0.121,0.0166 0.24765,0.0318 0.37606,0.0455 0.0674,0.007 0.13264,0.0152 0.20179,0.0222 0.16404,0.0159 0.33478,0.0303 0.50941,0.0441 0.0395,0.003 0.0762,0.007 0.11571,0.01 0.2099,0.0145 0.42792,0.0261 0.65052,0.0374 0.0946,0.005 0.19297,0.007 0.28998,0.0123 0.13441,0.005 0.26882,0.0102 0.40781,0.0145 0.11748,0.004 0.23742,0.007 0.35807,0.008 0.12101,0.004 0.24307,0.006 0.36548,0.008 0.13406,0.001 0.26882,0.003 0.4057,0.003 0.10971,10e-4 0.22119,10e-4 0.33231,0.002 0.1517,0 0.30233,0 0.4565,-7e-4 0.0765,0 0.15451,-0.001 0.23142,-0.002 0.64629,-0.006 1.31304,-0.0194 1.99214,-0.0416 l 0.0632,-0.002 c 0.23353,-0.007 0.46848,-0.0155 0.70414,-0.0247 l 0.0882,-0.004 c 0.24201,-0.009 0.48436,-0.019 0.72778,-0.0303 h 0.007 c 5.75169,-0.26246 11.69988,-0.92039 11.69988,-0.92039 9.34508,2.21297 18.81293,-3.93488 18.81293,-3.93488 0,0 5.77921,0.49177 8.23807,-1.96709 2.45956,-2.45921 -4.67254,-6.0258 -4.67254,-6.0258 0.86077,-1.1056 0,-3.44205 0,-3.44205 0,0 4.91842,1.96709 7.25487,-1.59879 2.33645,-3.56553 -6.3941,-6.39374 -6.3941,-6.39374"
       style="fill:#f5bd61;fill-opacity:1;fill-rule:nonzero;stroke:none;stroke-width:0.0352778"
       id="path106" />
    <path
       d="m 69.286825,154.08865 0.138994,0.71155 c 2.944284,15.14122 16.668399,16.76611 24.868366,17.73625 1.072444,0.12665 1.998133,0.23601 2.805289,0.36583 0.891822,0.14323 1.778,0.21625 2.635956,0.21625 4.80836,0 7.43267,-2.24472 7.45878,-2.26835 l 0.33091,-0.28858 0.41239,0.15346 c 0.61207,0.22754 2.04506,0.49953 5.39398,0.49953 6.46994,0 15.69296,-1.01141 15.78504,-1.02234 l 0.127,-0.0145 0.12418,0.0303 c 1.29152,0.30515 2.66453,0.46108 4.08164,0.46108 7.44114,-7.1e-4 14.09382,-4.25345 14.15979,-4.29684 l 0.21237,-0.13793 0.25153,0.0215 c 0.005,0 0.45509,0.037 1.14124,0.037 1.41922,0 4.89655,-0.17428 6.51333,-1.79141 0.31362,-0.31291 0.31821,-0.57044 0.28822,-0.75988 -0.21766,-1.34373 -3.04094,-3.21839 -4.76884,-4.08305 l -0.80434,-0.40323 0.5521,-0.70979 c 0.45685,-0.58773 0.12241,-2.09656 -0.11077,-2.73544 l -0.56621,-1.55151 1.53281,0.61171 c 0.0113,0.005 1.25201,0.4886 2.70405,0.4886 1.64324,0 2.87408,-0.60784 3.65971,-1.80657 0.28575,-0.43604 0.34819,-0.84067 0.19544,-1.27388 -0.65087,-1.84821 -4.79848,-3.56024 -6.19972,-4.01356 l -0.25752,-0.0836 -0.14288,-0.23071 c -3.22826,-5.22217 -6.92784,-7.9816 -10.7001,-7.9816 -2.927,0 -4.90114,1.62595 -4.9209,1.64253 l -0.95426,-1.12571 c 0.9899,-0.84808 1.58785,-3.79377 1.48943,-7.32967 -0.0977,-3.50872 -0.82374,-5.9182 -1.45733,-6.40256 -0.38064,-0.29069 -0.73589,-0.43886 -1.05657,-0.43886 -0.89217,0 -1.6196,1.30281 -1.69262,3.03107 -0.13547,3.19546 -7.27816,7.75758 -8.09273,8.26735 l -0.10054,0.0533 c -0.32314,0.13829 -0.70555,0.20955 -1.13524,0.20955 -3.32105,0 -9.75254,-4.39597 -10.02488,-4.58294 l -0.27905,-0.19156 -0.0363,-0.3369 c -0.56374,-5.18478 -4.33811,-7.01746 -4.37585,-7.03616 l -1.22873,-0.5782 1.15359,-0.71578 c 3.10973,-1.93076 4.30706,-4.73358 3.37043,-7.89411 -0.21484,-0.72567 -0.68403,-1.04881 -1.52012,-1.04881 -1.76988,0 -4.29612,1.44074 -5.56295,2.40877 -2.28494,1.74766 -6.486523,4.08587 -16.546688,4.21005 -9.217378,0.11359 -10.420703,8.23736 -10.467623,8.58308 l -0.05927,0.43886 -0.415573,0.15381 c -6.148564,2.27718 -7.748764,12.5924 -7.764639,12.69647 l -0.07161,0.48154 -0.470958,0.12418 c -1.696509,0.4445 -3.213806,0.66957 -4.509912,0.66957 h -0.0014 c -3.696759,0 -5.148439,-1.82562 -5.715353,-3.35809 -1.491909,-4.03437 1.4111,-10.29123 2.673339,-11.37356 0.790222,-0.67733 2.442281,-1.54305 4.355395,-2.54529 2.227439,-1.16664 4.998861,-2.61902 5.607403,-3.47063 0.6096,-0.85372 1.237545,-2.50331 0.725664,-3.49814 -0.4826,-0.93768 -1.935339,-1.13418 -3.069872,-1.13418 -1.182512,0 -2.658887,0.20602 -4.38644,0.61454 -4.528608,1.06786 -8.378825,3.94617 -10.839803,8.10154 -2.933348,4.95406 -3.669948,11.21375 -2.02177,17.17463 2.089503,7.55298 9.420578,8.68081 13.604523,8.68081 1.908881,0 3.249084,-0.23354 3.26249,-0.23566 z M 99.73543,174.5942 c -0.93592,0 -1.901826,-0.079 -2.870553,-0.23495 -0.776112,-0.12453 -1.688395,-0.23283 -2.744612,-0.35807 -7.920567,-0.93627 -22.567196,-2.67052 -26.000782,-18.23437 -0.619125,0.073 -1.603728,0.15804 -2.80917,0.15804 -4.603397,0 -12.676717,-1.26788 -15.026217,-9.76347 -1.754717,-6.34507 -0.962378,-13.02103 2.174169,-18.31834 2.667353,-4.50462 6.847064,-7.6253 11.770079,-8.78699 5.026025,-1.18534 8.065206,-0.74437 9.107312,1.28164 0.912989,1.77341 -0.148167,4.06576 -0.836789,5.03026 -0.756709,1.05833 -2.916062,2.23872 -6.123517,3.92006 -1.679928,0.87983 -3.417006,1.7907 -4.079523,2.35762 -0.899583,0.77258 -3.484739,6.40397 -2.250017,9.74231 0.596195,1.61078 2.01295,2.39501 4.331406,2.39501 h 0.0014 c 1.0541,0 2.289175,-0.17039 3.676298,-0.50659 0.40005,-2.16817 2.329039,-10.69693 8.237714,-13.21823 0.4191,-1.89618 2.646892,-9.30981 11.827229,-9.42376 9.622014,-0.11782 13.550543,-2.286 15.668973,-3.90595 1.22732,-0.93839 4.15573,-2.71251 6.45901,-2.71251 1.48978,0 2.53224,0.74754 2.93511,2.10538 1.02271,3.45228 -0.0893,6.64492 -3.05293,8.91046 1.34761,0.9839 3.59657,3.19229 4.14372,7.22983 1.95439,1.30986 6.65092,4.13914 8.91505,4.13914 0.20461,0 0.37606,-0.0254 0.50977,-0.0723 2.82328,-1.77835 7.26722,-5.22958 7.34412,-7.04533 0.11113,-2.6169 1.41358,-4.44359 3.16724,-4.44359 0.65158,0 1.30916,0.24942 1.95298,0.74225 1.37583,1.05198 1.95368,4.58117 2.03623,7.53286 0.0296,1.0668 0.031,3.85304 -0.62935,6.0579 0.94932,-0.37182 2.15265,-0.67909 3.53977,-0.67909 2.97357,0 7.4235,1.47355 11.81382,8.45467 1.26718,0.43815 5.95277,2.21474 6.87776,4.83976 0.3048,0.86607 0.18309,1.75648 -0.35243,2.57351 -1.06009,1.61855 -2.75272,2.47368 -4.89408,2.47368 -0.72602,0 -1.40053,-0.0988 -1.94416,-0.2152 0.10407,0.62971 0.14323,1.38924 -0.0607,2.06023 1.42628,0.79163 4.58752,2.76084 4.92231,4.82459 0.12206,0.75388 -0.1203,1.46014 -0.70132,2.04011 -1.93499,1.93499 -5.56507,2.22426 -7.5565,2.22426 -0.44203,0 -0.7934,-0.0145 -1.01318,-0.0261 -1.24037,0.76271 -7.53604,4.40056 -14.75176,4.40126 -1.4859,0 -2.93017,-0.1584 -4.29648,-0.47131 -1.13876,0.12206 -9.68728,1.01706 -15.82138,1.01706 -2.5721,0 -4.3815,-0.15171 -5.5058,-0.46286 -0.92569,0.67029 -3.69993,2.36715 -8.090251,2.36715"
       style="fill:#4f2614;fill-opacity:1;fill-rule:nonzero;stroke:none;stroke-width:0.0352778"
       id="path108" />
    <path
       d="m 142.70518,142.37924 c 1.45662,-1.15958 2.65112,-2.44051 2.95522,-4.34269 0.15028,-0.94121 -1.3141,-1.12466 -1.46368,-0.18838 -0.24095,1.50495 -1.26647,2.46627 -2.40736,3.37361 -0.74436,0.59267 0.16934,1.75084 0.91582,1.15746"
       style="fill:#4f2614;fill-opacity:1;fill-rule:nonzero;stroke:none;stroke-width:0.0352778"
       id="path110" />
    <path
       d="m 139.75384,142.88089 c 1.40687,-1.37653 1.27317,-3.85092 0.62935,-5.56648 -0.33549,-0.89111 -1.68804,-0.30197 -1.35396,0.58773 0.37536,0.99977 0.67098,2.97639 -0.1912,3.822 -0.6731,0.65793 0.23459,1.82315 0.91581,1.15675"
       style="fill:#4f2614;fill-opacity:1;fill-rule:nonzero;stroke:none;stroke-width:0.0352778"
       id="path112" />
    <path
       d="m 146.93498,151.25443 c 0.98566,-0.1397 1.67182,-1.0534 1.53247,-2.03941 -0.1397,-0.9846 -1.05481,-1.67076 -2.03976,-1.53176 -0.98461,0.14005 -1.67217,1.05551 -1.53141,2.04011 0.13935,0.98496 1.05375,1.67182 2.0387,1.53106 m -0.57644,-4.05836 c 1.25378,-0.1778 2.41794,0.69744 2.59574,1.95086 0.17745,1.25236 -0.69638,2.41688 -1.9498,2.59468 -1.25342,0.1778 -2.41723,-0.69708 -2.59539,-1.9498 -0.1785,-1.25342 0.69639,-2.41794 1.94945,-2.59574"
       style="fill:#100f0d;fill-opacity:1;fill-rule:nonzero;stroke:none;stroke-width:0.0352778"
       id="path114" />
    <path
       d="m 145.47483,149.64082 c -0.0949,-0.6671 0.3683,-1.28446 1.03541,-1.37936 0.66675,-0.0945 1.28446,0.37007 1.37865,1.03611 0.0952,0.6671 -0.369,1.28376 -1.03575,1.37901 -0.66746,0.0949 -1.28411,-0.36865 -1.37831,-1.03576"
       style="fill:#100f0d;fill-opacity:1;fill-rule:nonzero;stroke:none;stroke-width:0.0352778"
       id="path116" />
    <path
       d="m 145.91933,149.27711 c -0.0226,-0.16263 0.09,-0.31292 0.25295,-0.33549 0.16263,-0.0243 0.31256,0.0896 0.33619,0.25153 0.0229,0.16263 -0.09,0.31397 -0.25294,0.33619 -0.16263,0.024 -0.31291,-0.0889 -0.3362,-0.25223"
       style="fill:#fbfaba;fill-opacity:1;fill-rule:nonzero;stroke:none;stroke-width:0.0352778"
       id="path118" />
    <path
       d="m 146.4097,150.02676 c -0.0402,-0.28046 0.15487,-0.53869 0.43532,-0.57961 0.27976,-0.0392 0.5387,0.15593 0.57891,0.43568 0.0395,0.28046 -0.15593,0.5401 -0.43533,0.57926 -0.27975,0.0413 -0.53975,-0.15416 -0.5789,-0.43533"
       style="fill:#fbfaba;fill-opacity:1;fill-rule:nonzero;stroke:none;stroke-width:0.0352778"
       id="path120" />
    <path
       d="m 141.2228,159.52001 c 0.98496,-0.1397 1.67252,-1.0548 1.53247,-2.03941 -0.13899,-0.9846 -1.05445,-1.67181 -2.03906,-1.53246 -0.98425,0.1404 -1.67181,1.0548 -1.53246,2.0387 0.1404,0.98531 1.05445,1.67322 2.03905,1.53317 m -0.57608,-4.05906 c 1.25271,-0.17709 2.41794,0.69815 2.59538,1.9498 0.17816,1.25413 -0.69708,2.41865 -1.95015,2.59645 -1.25236,0.1778 -2.41653,-0.69674 -2.59504,-1.95086 -0.17815,-1.25236 0.69745,-2.41688 1.94981,-2.59539"
       style="fill:#100f0d;fill-opacity:1;fill-rule:nonzero;stroke:none;stroke-width:0.0352778"
       id="path122" />
    <path
       d="m 139.7623,157.9057 c -0.0945,-0.6671 0.36866,-1.28446 1.03541,-1.37795 0.66816,-0.0952 1.28517,0.36795 1.37936,1.0354 0.0945,0.6664 -0.36866,1.28447 -1.03541,1.37795 -0.6678,0.0945 -1.28446,-0.36865 -1.37936,-1.0354"
       style="fill:#100f0d;fill-opacity:1;fill-rule:nonzero;stroke:none;stroke-width:0.0352778"
       id="path124" />
    <path
       d="m 140.20751,157.54199 c -0.0229,-0.16193 0.09,-0.31292 0.25259,-0.33655 0.16192,-0.0226 0.31291,0.0903 0.33584,0.25294 0.0236,0.16333 -0.0903,0.31291 -0.25223,0.3362 -0.16263,0.0229 -0.31292,-0.0896 -0.3362,-0.25259"
       style="fill:#fbfaba;fill-opacity:1;fill-rule:nonzero;stroke:none;stroke-width:0.0352778"
       id="path126" />
    <path
       d="m 140.69716,158.29235 c -0.0395,-0.28046 0.15487,-0.54046 0.43604,-0.57962 0.2794,-0.0392 0.53904,0.15487 0.57891,0.43533 0.0399,0.28046 -0.15523,0.53904 -0.43533,0.57961 -0.28046,0.0392 -0.5394,-0.15522 -0.57962,-0.43532"
       style="fill:#fbfaba;fill-opacity:1;fill-rule:nonzero;stroke:none;stroke-width:0.0352778"
       id="path128" />
    <path
       d="m 140.50878,151.96845 c 0.41381,-0.80151 0.34819,-1.657 -0.14358,-1.91064 -0.49389,-0.25365 -1.22802,0.19014 -1.64112,0.99201 -0.4131,0.80221 -0.3489,1.65841 0.14464,1.91205 0.49318,0.25436 1.22696,-0.19014 1.64006,-0.99342"
       style="fill:#74706d;fill-opacity:1;fill-rule:nonzero;stroke:none;stroke-width:0.0352778"
       id="path130" />
    <path
       d="m 137.19479,158.06269 c -0.085,0 -0.1644,-0.018 -0.23636,-0.055 -0.49354,-0.25436 -0.45121,-1.31657 0.0924,-2.37385 0.46496,-0.90275 1.14723,-1.50883 1.64288,-1.50883 0.0847,0 0.16404,0.0176 0.23566,0.0543 0.49318,0.25506 0.4512,1.31692 -0.0938,2.37385 -0.46426,0.9024 -1.14512,1.50953 -1.64077,1.50953"
       style="fill:#cfa765;fill-opacity:1;fill-rule:nonzero;stroke:none;stroke-width:0.0352778"
       id="path132" />
    <path
       d="m 142.96235,149.78934 c -0.0854,0 -0.1651,-0.018 -0.23742,-0.0554 -0.49283,-0.25364 -0.45155,-1.31621 0.0924,-2.37172 0.46532,-0.90311 1.14653,-1.50989 1.64253,-1.50989 0.085,0 0.1644,0.0176 0.23637,0.0547 0.49353,0.25435 0.45155,1.31692 -0.0931,2.37313 -0.46567,0.90312 -1.14547,1.50919 -1.64077,1.50919"
       style="fill:#cfa765;fill-opacity:1;fill-rule:nonzero;stroke:none;stroke-width:0.0352778"
       id="path134" />
    <path
       d="m 142.74716,145.67701 c 2.14806,-0.85302 4.13667,-2.52342 5.55025,-4.33317 0.58632,-0.75106 -0.59408,-1.63583 -1.17934,-0.88547 -1.25871,1.61078 -3.04729,3.10621 -4.95864,3.86539 -0.88547,0.35066 -0.29669,1.70391 0.58773,1.35325"
       style="fill:#4f2614;fill-opacity:1;fill-rule:nonzero;stroke:none;stroke-width:0.0352778"
       id="path136" />
    <path
       d="m 135.50181,159.89607 c 0.37535,2.88714 0.3302,5.99723 -1.17158,8.58203 -0.47237,0.8135 0.70203,1.7085 1.18004,0.88653 1.71274,-2.94887 1.88384,-6.356 1.45239,-9.67564 -0.12347,-0.94333 -1.58327,-0.73519 -1.46085,0.20708"
       style="fill:#4f2614;fill-opacity:1;fill-rule:nonzero;stroke:none;stroke-width:0.0352778"
       id="path138" />
    <path
       d="m 133.2779,158.22461 c 0.254,2.49097 -1.02941,5.41585 -2.7358,7.19067 -0.65863,0.68474 0.52811,1.56281 1.18004,0.88547 1.97768,-2.0574 3.30941,-5.42007 3.01696,-8.28216 -0.0974,-0.94862 -1.55822,-0.73731 -1.4612,0.20602"
       style="fill:#4f2614;fill-opacity:1;fill-rule:nonzero;stroke:none;stroke-width:0.0352778"
       id="path140" />
    <path
       d="m 137.72607,160.98827 c 0.32279,2.04365 1.45733,4.7177 0.25047,6.64069 -0.50165,0.80081 0.67381,1.69369 1.17969,0.88689 1.51165,-2.40877 0.43815,-5.16008 0.0314,-7.73501 -0.14958,-0.93839 -1.61008,-0.73237 -1.46156,0.20743"
       style="fill:#4f2614;fill-opacity:1;fill-rule:nonzero;stroke:none;stroke-width:0.0352778"
       id="path142" />
    <path
       d="m 108.33545,171.58183 c -0.3041,-8.51181 -11.789485,-8.00346 -17.756016,-9.23677 -0.928863,-0.19227 -1.323622,1.22907 -0.391936,1.42275 5.092348,1.05269 16.410162,0.47766 16.672632,7.81402 0.0339,0.94827 1.50954,0.9518 1.47532,0"
       style="fill:#3d1b17;fill-opacity:1;fill-rule:nonzero;stroke:none;stroke-width:0.0352778"
       id="path144" />
    <path
       d="m 122.40881,162.02262 c 0.35948,-1.90183 0.95462,-3.7966 1.73038,-5.56789 0.21519,-0.49142 1.61889,-3.01661 2.147,-2.2786 0.64664,0.90241 0.66534,2.52025 0.76906,3.556 0.5782,5.75099 -2.62361,10.94352 -8.01335,12.97411 -0.88159,0.33126 -0.49989,1.75895 0.39229,1.42275 7.0612,-2.661 9.97444,-9.31968 8.82297,-16.51987 -0.33972,-2.12408 -1.60232,-4.15008 -3.69711,-2.38337 -2.1777,1.8348 -3.07481,5.76651 -3.57434,8.40458 -0.17604,0.92957 1.24636,1.32644 1.4231,0.39229"
       style="fill:#4f2614;fill-opacity:1;fill-rule:nonzero;stroke:none;stroke-width:0.0352778"
       id="path146" />
    <path
       d="m 114.81915,147.17279 c 0,6.82766 -9.25336,12.36169 -20.667135,12.36169 -11.414831,0 -20.66784,-5.53403 -20.66784,-12.36169 0,-6.82625 9.253009,-12.36028 20.66784,-12.36028 11.413775,0 20.667135,5.53403 20.667135,12.36028"
       style="fill:#ffffff;fill-opacity:1;fill-rule:nonzero;stroke:none;stroke-width:0.0352778"
       id="path148" />
    <path
       d="m 78.830875,141.38512 c -3.427236,-0.75812 -2.954161,4.03013 -0.316441,4.8521 -0.0441,-0.3369 -0.08855,-0.6738 -0.132292,-1.01176 -2.619375,1.56421 -1.722261,5.05213 1.398411,4.92266 0.7112,-0.0289 0.71367,-1.13559 0,-1.10667 -2.001661,0.0825 -2.532592,-1.84996 -0.839964,-2.86032 0.420159,-0.25118 0.322792,-0.86995 -0.132291,-1.01141 -1.23437,-0.38524 -2.197101,-3.14325 -0.271286,-2.71745 0.69603,0.15381 0.991305,-0.91299 0.293863,-1.06715"
       style="fill:#4f2614;fill-opacity:1;fill-rule:nonzero;stroke:none;stroke-width:0.0352778"
       id="path150" />
  </g>
</svg>
